# xmcd
#
# Track frame offsets: 
#        150
#        15510
#        28491
#        46700
#        62128
#        76544
#        92788
#        104739
#        117804
#        134954
#        153409
#        165257
#        185681
#        198638
#        213035
#        226651
#
# Disc length: 3195 seconds
#
# Revision: 0
# Processed by: cddbd v1.5.2PL0 Copyright (c) Steve Scherf et al.
# Submitted via: ExactAudioCopy v0.95a5
#
DISCID=d00c7910
DTITLE=Jacksonville Blues Band - Livin' Hand To Mouth
DYEAR=2000
DGENRE=Blues
TTITLE0=Just Like I Treat You
TTITLE1=Dust My Broom
TTITLE2=Seventh Son
TTITLE3=A Man Needs His Loving
TTITLE4=Love Me Darlin'
TTITLE5=Cuttin' In
TTITLE6=Made Up My Miind
TTITLE7=Looking For Somebody
TTITLE8=You'll Be Mine
TTITLE9=Out Of Reach
TTITLE10=Hide Away
TTITLE11=Give Me Time
TTITLE12=I Ain't Superstitious
TTITLE13=She Moves Me
TTITLE14=All Your Love
TTITLE15=Side Tracked
EXTD=
EXTT0=
EXTT1=
EXTT2=
EXTT3=
EXTT4=
EXTT5=
EXTT6=
EXTT7=
EXTT8=
EXTT9=
EXTT10=
EXTT11=
EXTT12=
EXTT13=
EXTT14=
EXTT15=
PLAYORDER=
